<svg width="84" height="20" viewBox="0 0 84 20" fill="none" xmlns="http://www.w3.org/2000/svg">
<mask id="mask0_45347_33958" style="mask-type:luminance" maskUnits="userSpaceOnUse" x="11" y="13" width="25" height="6">
<path fill-rule="evenodd" clip-rule="evenodd" d="M11.3849 13.7227H35.5785V19.0001H11.3849V13.7227Z" fill="white"/>
</mask>
<g mask="url(#mask0_45347_33958)">
<path fill-rule="evenodd" clip-rule="evenodd" d="M35.3591 15.8258C32.4559 17.9032 28.2495 19.0129 24.6236 19.0129C19.5398 19.0129 14.972 17.1935 11.5011 14.1612C11.2301 13.929 11.4753 13.5935 11.7978 13.787C15.5398 15.8903 20.1591 17.1677 24.9204 17.1677C28.1333 17.1677 31.6817 16.5225 34.9333 15.1806C35.4365 14.9612 35.8495 15.4774 35.3591 15.8258Z" fill="#222E3E"/>
</g>
<path fill-rule="evenodd" clip-rule="evenodd" d="M35.9269 14.4065C35.5914 13.9678 33.6688 14.2 32.8172 14.3032C32.5591 14.3291 32.5204 14.1097 32.7527 13.942C34.2753 12.8581 36.7785 13.1678 37.0623 13.5291C37.3591 13.9032 36.9849 16.4452 35.5527 17.6581C35.3333 17.8387 35.1269 17.7484 35.2172 17.5032C35.5527 16.6774 36.2753 14.8452 35.9269 14.4065Z" fill="#222E3E"/>
<path fill-rule="evenodd" clip-rule="evenodd" d="M32.8817 5.0259V3.85171C32.8817 3.67106 33.0108 3.55493 33.1656 3.55493H38.2237C38.3914 3.55493 38.5204 3.68396 38.5204 3.85171V4.85816C38.5204 5.0259 38.3785 5.24525 38.1333 5.59364L35.514 9.49041C36.4817 9.46461 37.514 9.61945 38.4043 10.1356C38.5979 10.2517 38.6624 10.4194 38.6753 10.6001V11.8517C38.6753 12.0194 38.4946 12.2259 38.3011 12.1227C36.7398 11.2711 34.6753 11.1807 32.9462 12.1356C32.7656 12.2388 32.585 12.0323 32.585 11.8646V10.6646C32.585 10.4711 32.585 10.1485 32.7785 9.8517L35.8237 5.30977H33.1785C33.0237 5.32267 32.8946 5.20654 32.8817 5.0259Z" fill="#222E3E"/>
<path fill-rule="evenodd" clip-rule="evenodd" d="M14.5978 12.6775H13.101C12.9591 12.6646 12.843 12.5485 12.8301 12.4066V4.03239C12.8301 3.86464 12.9591 3.73561 13.1269 3.73561H14.5333C14.6752 3.74851 14.7914 3.86465 14.8043 4.01948V5.11626H14.8301C15.1914 4.05819 15.8881 3.56787 16.8172 3.56787C17.7591 3.56787 18.3527 4.05819 18.7656 5.11626C19.1269 4.05819 19.9656 3.56787 20.843 3.56787C21.4752 3.56787 22.1591 3.85174 22.5849 4.484C23.0623 5.19368 22.9591 6.21303 22.9591 7.10335V12.3808C22.9591 12.5485 22.8301 12.6775 22.6752 12.6775H21.1656C21.0107 12.6646 20.8946 12.5356 20.8946 12.3808V7.94206C20.8946 7.59368 20.9204 6.70335 20.8559 6.36787C20.7398 5.80013 20.4043 5.64529 19.9656 5.64529C19.6043 5.64529 19.2172 5.90335 19.0623 6.32916C18.9075 6.75497 18.9204 7.45174 18.9204 7.92916V12.3679C18.9204 12.5356 18.7914 12.6646 18.6365 12.6646H17.1269C16.972 12.6517 16.8559 12.5227 16.8559 12.3679V7.92916C16.8559 7.00013 16.9978 5.61948 15.9269 5.61948C14.843 5.61948 14.8817 6.96142 14.8817 7.92916V12.3679C14.8946 12.5485 14.7656 12.6775 14.5978 12.6775Z" fill="#222E3E"/>
<path fill-rule="evenodd" clip-rule="evenodd" d="M43.2301 5.23235C42.0817 5.23235 42.0043 6.84525 42.0043 7.8388C42.0043 8.84525 41.9914 10.9872 43.2172 10.9872C44.4301 10.9872 44.4817 9.25816 44.4817 8.20009C44.4817 7.50332 44.4559 6.67751 44.2494 6.01945C44.0817 5.45171 43.7204 5.23235 43.2301 5.23235ZM43.2172 3.55493C45.5397 3.55493 46.7914 5.59364 46.7914 8.18719C46.7914 10.6904 45.3978 12.6775 43.2172 12.6775C40.9333 12.6775 39.6946 10.6388 39.6946 8.09687C39.6946 5.54203 40.9462 3.55493 43.2172 3.55493Z" fill="#222E3E"/>
<path fill-rule="evenodd" clip-rule="evenodd" d="M50.0558 12.6775H48.5849C48.43 12.6646 48.3139 12.5356 48.3139 12.3807V4.00654C48.3268 3.85171 48.4429 3.73558 48.5978 3.73558H49.9655C50.0945 3.74848 50.1978 3.8388 50.2236 3.96783V5.24525H50.2494C50.6623 4.09687 51.2429 3.55493 52.2623 3.55493C52.9204 3.55493 53.5784 3.8259 53.9913 4.53558C54.3784 5.20655 54.3784 6.32913 54.3784 7.14203V12.4065C54.3655 12.5614 54.2365 12.6646 54.0945 12.6646H52.6107C52.4687 12.6517 52.3655 12.5485 52.3526 12.4065V7.86461C52.3526 6.94848 52.4558 5.60654 51.4236 5.60654C51.0623 5.60654 50.7268 5.86461 50.572 6.27751C50.3655 6.79364 50.3397 7.29687 50.3397 7.86461V12.3678C50.3397 12.5485 50.2107 12.6775 50.0558 12.6775Z" fill="#222E3E"/>
<path fill-rule="evenodd" clip-rule="evenodd" d="M30.7786 12.5485C30.6753 12.6388 30.5205 12.6517 30.4044 12.5872C29.8753 12.1485 29.785 11.9421 29.4882 11.5292C28.6108 12.4195 27.9915 12.6904 26.8689 12.6904C25.5269 12.6904 24.4818 11.8646 24.4818 10.2001C24.4818 8.9098 25.1786 8.01948 26.1721 7.59368C27.0366 7.21948 28.2366 7.14206 29.1657 7.03884V6.83239C29.1657 6.45819 29.1915 6.00658 28.9721 5.6711C28.7786 5.37432 28.4044 5.25819 28.0818 5.25819C27.4753 5.25819 26.9334 5.56787 26.8044 6.21303C26.7786 6.35497 26.6753 6.4969 26.5334 6.5098L24.9979 6.34206C24.8689 6.31626 24.7269 6.21303 24.7657 6.00658C25.114 4.12271 26.8044 3.56787 28.3269 3.56787C29.1011 3.56787 30.1076 3.77432 30.7269 4.36787C31.5011 5.09045 31.4237 6.05819 31.4237 7.11626V9.60658C31.4237 10.355 31.7334 10.6775 32.0302 11.0904C32.1334 11.2324 32.1592 11.413 32.0302 11.5163C31.6818 11.7614 31.1011 12.2646 30.7786 12.5485ZM29.1786 8.65174C29.1786 9.2711 29.1915 9.78722 28.8818 10.3421C28.6237 10.7937 28.2237 11.0646 27.785 11.0646C27.1786 11.0646 26.8173 10.6001 26.8173 9.90335C26.8173 8.54852 28.0302 8.29045 29.1786 8.29045V8.65174Z" fill="#222E3E"/>
<path fill-rule="evenodd" clip-rule="evenodd" d="M10.4946 12.5485C10.3914 12.6388 10.2365 12.6517 10.1204 12.5872C9.59136 12.1485 9.50104 11.942 9.20427 11.5291C8.32685 12.4194 7.70749 12.6904 6.58491 12.6904C5.24298 12.6904 4.19781 11.8646 4.19781 10.2001C4.19781 8.90977 4.89459 8.01945 5.88814 7.59364C6.75265 7.21945 7.95265 7.14203 8.88169 7.0388V6.83235C8.88169 6.45816 8.90749 6.00654 8.68814 5.67106C8.49459 5.37429 8.1204 5.25816 7.79781 5.25816C7.19136 5.25816 6.64943 5.56784 6.5204 6.213C6.49459 6.35493 6.39136 6.49687 6.24943 6.50977L4.71394 6.34203C4.58491 6.31622 4.44298 6.213 4.48169 6.00654C4.83007 4.12267 6.5204 3.55493 8.03007 3.55493C8.80427 3.55493 9.81072 3.76138 10.4301 4.35493C11.2043 5.07751 11.1268 6.04525 11.1268 7.10332V9.59364C11.1268 10.342 11.4365 10.6646 11.7333 11.0775C11.8365 11.2194 11.8623 11.4001 11.7333 11.5033C11.3978 11.7614 10.8172 12.2646 10.4946 12.5485ZM8.89459 8.65171C8.89459 9.27106 8.90749 9.78719 8.59781 10.342C8.33975 10.7936 7.93975 11.0646 7.50104 11.0646C6.89459 11.0646 6.5333 10.6001 6.5333 9.90332C6.5333 8.54848 7.7462 8.29041 8.89459 8.29041V8.65171Z" fill="#222E3E"/>
<path fill-rule="evenodd" clip-rule="evenodd" d="M67.0623 5.87742C66.6236 6.40645 66.4172 7.12903 66.4172 8.05806C66.4172 8.9871 66.6236 9.72258 67.0365 10.2645C67.5139 10.871 68.2107 11.1806 69.1527 11.1806C70.0301 11.1806 70.701 10.8839 71.1914 10.2774C71.6172 9.73548 71.8365 9.02581 71.8365 8.16129V8.00645C71.8365 7.10323 71.5785 6.36774 71.1139 5.8129C70.6236 5.24516 69.9914 4.97419 69.2172 4.97419C68.2623 4.97419 67.5398 5.27097 67.0623 5.87742ZM73.1527 1.33548V11.6839C73.1527 11.8387 73.0107 11.9548 72.843 11.9548H72.2107C72.0301 11.9548 71.8881 11.8258 71.8881 11.671V10.6774C71.2817 11.671 70.301 12.1613 68.9978 12.1613C67.7204 12.1613 66.7269 11.7355 66.0172 10.9226C65.3591 10.1742 65.0365 9.20645 65.0365 8.03226C65.0365 6.88387 65.3591 5.95484 66.0172 5.20645C66.7269 4.36774 67.6817 3.95484 68.9333 3.95484C70.1849 3.95484 71.1398 4.49677 71.8107 5.59355V1.28387C71.8107 1.12903 71.9527 1 72.1333 1H72.8043C72.9978 1.0129 73.1527 1.15484 73.1527 1.33548Z" fill="#222E3E"/>
<path fill-rule="evenodd" clip-rule="evenodd" d="M62.7784 8.72913C62.7784 9.36138 62.4817 9.92913 61.901 10.4194C61.3075 10.9227 60.6365 11.1807 59.8752 11.1807C59.372 11.1807 58.972 11.0517 58.6623 10.8194C58.3526 10.5614 58.2107 10.2646 58.2107 9.89042C58.2107 8.70332 59.1139 8.10977 60.9204 8.07106L62.7784 8.04525V8.72913ZM63.3075 4.47106C62.7397 3.85171 61.901 3.55493 60.7526 3.55493C60.4042 3.55493 60.0946 3.58074 59.7978 3.63235C58.972 3.73558 58.2107 4.10977 57.643 4.45816C57.5397 4.52267 57.501 4.65171 57.5526 4.75493L57.7849 5.23235C57.8365 5.34848 57.9913 5.40009 58.1075 5.33558C58.6494 5.0388 59.3849 4.78074 60.0301 4.6388C60.2236 4.60009 60.443 4.58719 60.6752 4.58719C62.0817 4.58719 62.7784 5.27106 62.7784 6.6388V7.06461L60.843 7.09041C59.6301 7.10332 58.6881 7.27106 58.0301 7.72267C57.2817 8.20009 56.9204 8.96138 56.9204 9.89042C56.9204 10.5485 57.1655 11.1033 57.6688 11.5291C58.1462 11.942 58.7913 12.1485 59.6042 12.1485C60.3526 12.1485 61.0236 11.9807 61.6172 11.6453C62.1204 11.3614 62.5333 11.0001 62.843 10.5485V11.6194C62.843 11.7872 62.9849 11.9291 63.1526 11.9291H63.7075C63.8752 11.9291 64.0172 11.7872 64.0172 11.6194V6.67751C64.0301 5.74848 63.7849 5.013 63.3075 4.47106Z" fill="#222E3E"/>
<path fill-rule="evenodd" clip-rule="evenodd" d="M74.172 10.6517C74.172 10.4711 74.3784 10.355 74.5333 10.4582C75.1655 10.8324 75.8365 11.013 76.5591 11.013C77.6945 11.013 78.4687 10.6388 78.4687 9.90335C78.4687 9.59368 78.3397 9.32271 78.0945 9.12916C77.8494 8.92271 77.1397 8.67755 76.3784 8.40658C75.4623 8.04529 74.8687 7.684 74.5978 7.32271C74.3268 6.96142 74.1849 6.53561 74.1849 6.03239C74.1849 5.3098 74.4945 4.66464 75.1139 4.22593C75.7333 3.78722 76.4945 3.56787 77.3978 3.56787C78.0429 3.56787 78.6494 3.73561 79.2042 3.94206C79.2945 3.98077 79.3591 4.05819 79.3591 4.16142V5.00013C79.3591 5.18077 79.1784 5.284 79.0107 5.20658C78.4816 4.94852 77.901 4.74206 77.2558 4.74206C76.7913 4.74206 76.2752 4.84529 75.9784 5.03884C75.6816 5.23239 75.4752 5.58077 75.4752 5.90335C75.4752 6.22593 75.5784 6.484 75.7978 6.66464C76.0042 6.84529 76.6752 7.07755 77.3978 7.36142C78.3139 7.6969 78.9462 8.05819 79.2687 8.41948C79.5913 8.78077 79.7591 9.23239 79.7591 9.77432C79.7591 10.5227 79.4494 11.1163 78.83 11.5421C78.2107 11.9679 77.4107 12.1872 76.4171 12.1872C75.6171 12.1872 74.9204 12.0453 74.3139 11.7743C74.2236 11.7356 74.172 11.6582 74.172 11.555V10.6517Z" fill="#222E3E"/>
</svg>
