<svg width="187" height="32" viewBox="0 0 187 32" fill="none" xmlns="http://www.w3.org/2000/svg">
<g clip-path="url(#clip0_45118_17089)">
<path d="M0.45735 12.5788L9.8201 4.77687L9.82646 4.77053C10.0554 4.57977 10.3417 4.47803 10.6406 4.47803H19.5708C20.0542 4.47803 20.4932 4.75145 20.7094 5.18383L30.5364 24.8254H21.1482C20.6648 24.8254 20.226 24.552 20.0098 24.1196L11.671 7.45383C11.5375 7.18677 11.2639 7.02145 10.965 7.02145C10.5261 7.02145 10.1763 7.37753 10.1763 7.80991V23.56C10.1763 24.2596 9.60384 24.8318 8.90418 24.8318H-0.000610352V13.5581C-0.000610352 13.1765 0.164764 12.8205 0.45735 12.5788Z" fill="#6647FF"/>
<path d="M25.4416 4.48389H34.8298C35.3132 4.48389 35.7522 4.75731 35.9684 5.18969L45.7954 24.8313H36.4072C35.9238 24.8313 35.485 24.5579 35.2688 24.1255L25.4416 4.48389Z" fill="#6647FF"/>
<path d="M80.5993 14.5719V24.8315H76.8403V14.8136C76.8403 11.6842 75.5555 10.0495 73.1195 10.0495C70.5437 10.0495 68.9091 11.9959 68.9091 15.1952V24.8315H65.1183V14.8136C65.1183 11.6842 63.8337 10.0495 61.3595 10.0495C58.8853 10.0495 57.1871 12.1358 57.1871 15.3033V24.8315H53.4283V7.02826H56.6973L57.1171 9.35622C58.1285 8.03322 59.6549 6.85016 62.3325 6.81836C64.6605 6.81836 66.7467 7.75972 67.8279 10.0559C68.9727 8.10954 70.9953 6.81836 73.9147 6.81836C77.6035 6.81836 80.5993 8.94278 80.5993 14.5719Z" fill="#07021E"/>
<path d="M99.133 13.287V24.8379H95.8638L95.5522 22.2999C94.3374 23.9029 92.6328 25.0477 89.8152 25.0477C85.9228 25.0477 83.3086 23.1331 83.3086 19.8321C83.3086 16.1811 85.9546 14.1266 90.96 14.1266H95.4122V13.0453C95.4122 11.0608 93.9876 9.84598 91.5198 9.84598C89.2936 9.84598 87.799 10.8891 87.5192 12.4538H83.8302C84.2118 8.97458 87.2012 6.81836 91.6914 6.81836C96.4234 6.81836 99.133 9.08272 99.133 13.287ZM95.4122 17.5295V16.9062H90.7502C88.4222 16.9062 87.1312 17.7776 87.1312 19.584C87.1312 21.0787 88.3842 22.1219 90.4384 22.1219C93.5678 22.1219 95.3804 20.2773 95.4122 17.5295Z" fill="#07021E"/>
<path d="M116.07 0.490234H119.829V24.8385H116.56L116.108 22.1607C114.964 23.7253 113.119 25.0483 110.302 25.0483C105.468 25.0483 101.887 21.6391 101.887 15.9337C101.887 10.2283 105.468 6.819 110.302 6.819C113.017 6.819 114.925 7.9321 116.077 9.49678V0.490234H116.07ZM116.108 16.0036C116.108 12.4545 114.054 10.0184 110.925 10.0184C107.796 10.0184 105.741 12.4545 105.741 15.9337C105.741 19.4129 107.796 21.8807 110.925 21.8807C114.054 21.8807 116.108 19.4447 116.108 16.0036Z" fill="#07021E"/>
<path d="M137.53 7.02827H140.799V24.1063C140.799 28.9403 138.083 31.9999 131.685 31.9999C126.953 31.9999 123.652 29.8055 123.302 25.8109H127.131C127.582 27.7955 129.319 28.9403 131.965 28.9403C135.234 28.9403 137.078 27.3757 137.078 23.9665V21.9819C135.895 23.7565 134.051 24.9015 131.271 24.9015C126.438 24.9015 122.857 21.5303 122.857 15.8567C122.857 10.1831 126.438 6.81201 131.271 6.81201C134.057 6.81201 135.965 8.02687 137.116 9.80147L137.536 7.01553L137.53 7.02827ZM137.078 15.9331C137.078 12.422 135.024 9.98593 131.895 9.98593C128.765 9.98593 126.711 12.422 126.711 15.8631C126.711 19.3042 128.765 21.7403 131.895 21.7403C135.024 21.7403 137.078 19.3423 137.078 15.9331Z" fill="#07021E"/>
<path d="M144.106 2.25799C144.106 0.935003 145.118 0 146.402 0C147.687 0 148.698 0.941363 148.698 2.25799C148.698 3.57463 147.687 4.51599 146.402 4.51599C145.118 4.51599 144.106 3.57463 144.106 2.25799ZM144.488 7.02205H148.247V24.8317H144.488V7.02205Z" fill="#07021E"/>
<path d="M151.268 15.9648C151.268 10.4693 154.817 6.81836 160.204 6.81836C164.796 6.81836 167.646 9.35622 168.377 13.3952H164.447C163.957 11.3089 162.462 10.0241 160.134 10.0241C157.107 10.0241 155.129 12.4602 155.129 15.9712C155.129 19.4822 157.113 21.8483 160.134 21.8483C162.43 21.8483 163.957 20.5253 164.415 18.4773H168.377C167.684 22.5099 164.656 25.0541 160.102 25.0541C154.709 25.0541 151.268 21.5431 151.268 15.9776V15.9648Z" fill="#07021E"/>
<path d="M175.8 15.7232L169.503 7.02832H173.885L178.127 13.0454L182.478 7.02832H186.618L180.29 15.7232L187 24.838H182.618L177.956 18.3692L173.262 24.838H169.121L175.8 15.7232Z" fill="#07021E"/>
</g>
<defs>
<clipPath id="clip0_45118_17089">
<rect width="187" height="32" fill="white"/>
</clipPath>
</defs>
</svg>
