<svg width="128" height="26" viewBox="0 0 128 26" fill="none" xmlns="http://www.w3.org/2000/svg">
<g clip-path="url(#clip0_1685_5445)">
<path d="M4.19376 17.1464C4.19376 18.641 4.51916 19.7886 4.94447 20.4828C5.50211 21.3921 6.33384 21.7774 7.18177 21.7774C8.27544 21.7774 9.27595 21.5038 11.2041 18.8153C12.7487 16.6604 14.5688 13.6357 15.7934 11.7395L17.8673 8.52691C19.308 6.29581 20.9755 3.8156 22.8874 2.13445C24.4483 0.762304 26.132 0 27.8265 0C30.6714 0 33.3813 1.66209 35.4552 4.77937C37.7249 8.1934 38.8267 12.4936 38.8267 16.9313C38.8267 19.5694 38.3109 21.5079 37.4332 23.0393C36.5853 24.5203 34.9327 26 32.1526 26V21.7774C34.533 21.7774 35.1271 19.5721 35.1271 17.0484C35.1271 13.4519 34.2954 9.46073 32.4631 6.6089C31.1629 4.58607 29.4778 3.35005 27.624 3.35005C25.6189 3.35005 24.0054 4.87466 22.1921 7.59309C21.228 9.03738 20.2383 10.7975 19.1271 12.7836L17.9038 14.9684C15.4464 19.3612 14.824 20.3617 13.5953 22.0129C11.4417 24.9042 9.6027 26 7.18177 26C4.30987 26 2.49384 24.7463 1.36911 22.8569C0.450971 21.3173 0 19.2972 0 16.9953L4.19376 17.1464Z" fill="#0081FB"/>
<path d="M3.30664 5.07749C5.22934 2.08953 8.00402 0 11.1865 0C13.0295 0 14.8617 0.549948 16.775 2.12492C18.8678 3.84691 21.0984 6.68241 23.8812 11.3556L24.879 13.0327C27.2877 17.0783 28.6582 19.1597 29.4602 20.1412C30.4918 21.4017 31.2141 21.7774 32.1525 21.7774C34.533 21.7774 35.1271 19.5721 35.1271 17.0484L38.8266 16.9313C38.8266 19.5694 38.3109 21.5079 37.4332 23.0393C36.5853 24.5203 34.9326 26 32.1525 26C30.4243 26 28.8931 25.6216 27.2 24.0112C25.8984 22.7752 24.3767 20.5795 23.206 18.6057L19.7239 12.7414C17.9767 9.79832 16.374 7.60398 15.4464 6.61026C14.4486 5.54168 13.1659 4.2512 11.119 4.2512C9.46225 4.2512 8.05533 5.42325 6.87795 7.21602L3.30664 5.07749Z" fill="url(#paint0_linear_1685_5445)"/>
<path d="M11.119 4.2512C9.46228 4.2512 8.05536 5.42325 6.87797 7.21602C5.21316 9.74932 4.19375 13.5227 4.19375 17.1464C4.19375 18.641 4.51916 19.7886 4.94447 20.4828L1.36911 22.8569C0.45097 21.3173 0 19.2972 0 16.9953C0 12.8094 1.13958 8.4466 3.30667 5.07749C5.22937 2.08953 8.00405 0 11.1865 0L11.119 4.2512Z" fill="url(#paint1_linear_1685_5445)"/>
<path d="M46.9785 0.820312H51.8298L60.0783 15.8649L68.328 0.820312H73.074V25.5407H69.1166V6.59476L61.8821 19.7146H58.1691L50.936 6.59476V25.5407H46.9785V0.820312ZM85.4744 10.0374C82.6362 10.0374 80.9269 12.1909 80.5178 14.8576H90.1502C89.9517 12.1106 88.38 10.0374 85.4744 10.0374ZM76.594 16.3768C76.594 10.7657 80.191 6.68188 85.5432 6.68188C90.8077 6.68188 93.951 10.7139 93.951 16.6762V17.772H80.5178C80.9944 20.6729 82.9036 22.6276 85.9821 22.6276C88.4381 22.6276 89.9733 21.8721 91.4288 20.4905L93.5311 23.0864C91.5503 24.9227 89.0308 25.9818 85.8416 25.9818C80.0479 25.9818 76.594 21.7224 76.594 16.3768ZM98.7497 10.3913H95.1068V7.12429H98.7497V1.72146H102.568V7.12429H108.103V10.3913H102.568V18.6718C102.568 21.4992 103.465 22.5038 105.668 22.5038C106.674 22.5038 107.251 22.4166 108.103 22.2737V25.5053C107.041 25.8075 106.029 25.9464 104.932 25.9464C100.81 25.9464 98.7497 23.6758 98.7497 19.1306V10.3913ZM124.181 13.5685C123.414 11.6164 121.703 10.179 119.189 10.179C115.922 10.179 113.83 12.5162 113.83 16.3237C113.83 20.0358 115.756 22.4861 119.033 22.4861C121.609 22.4861 123.448 20.9751 124.181 19.0952V13.5685ZM127.999 25.5407H124.251V22.9625C123.203 24.4803 121.297 25.9818 118.209 25.9818C113.243 25.9818 109.924 21.7905 109.924 16.3237C109.924 10.8051 113.322 6.68188 118.42 6.68188C120.939 6.68188 122.916 7.69738 124.251 9.49016V7.12429H127.999V25.5407Z" fill="#192830"/>
</g>
<defs>
<linearGradient id="paint0_linear_1685_5445" x1="8.23626" y1="15.9267" x2="34.9715" y2="17.266" gradientUnits="userSpaceOnUse">
<stop stop-color="#0064E1"/>
<stop offset="0.4" stop-color="#0064E1"/>
<stop offset="0.83" stop-color="#0073EE"/>
<stop offset="1" stop-color="#0082FB"/>
</linearGradient>
<linearGradient id="paint1_linear_1685_5445" x1="6.07595" y1="18.9215" x2="6.07595" y2="8.98429" gradientUnits="userSpaceOnUse">
<stop stop-color="#0082FB"/>
<stop offset="1" stop-color="#0064E0"/>
</linearGradient>
<clipPath id="clip0_1685_5445">
<rect width="128" height="26" fill="white"/>
</clipPath>
</defs>
</svg>
