<svg width="93" height="148" viewBox="0 0 93 148" fill="none" xmlns="http://www.w3.org/2000/svg">
<g style="mix-blend-mode:luminosity">
<path d="M97.7089 94.6246C100.738 113.46 139.86 118.164 155.776 108.563C174.691 97.155 162.299 56.1367 159.906 46.0219C158.56 40.3459 138.965 64.0635 118.647 62.7039C97.4968 61.3059 88.5207 46.6265 90.3482 52.0719C91.5161 55.56 94.0134 71.6584 97.7089 94.6246Z" stroke="#D1D5DB" stroke-miterlimit="10"/>
<path d="M96.2048 98.1305C98.4833 118.86 142.028 123.229 159.206 112.369C179.841 99.3293 160.734 56.3013 162.572 44.0999C163.518 37.7773 139.477 60.2193 116.829 59.5482C93.4719 58.8492 81.8571 46.0921 85.842 52.7643C88.3056 56.9164 93.408 72.6443 96.2048 98.1305Z" stroke="#D1D5DB" stroke-miterlimit="10"/>
<path d="M94.6951 101.637C96.2231 124.257 144.17 128.287 162.63 116.176C184.978 101.497 162.119 56.1481 165.198 42.1818C166.706 35.3489 139.956 56.3753 114.98 56.3963C89.4009 56.4173 75.1979 45.6664 81.2965 53.4569C85.1232 58.3431 92.8002 73.6271 94.6951 101.637Z" stroke="#D1D5DB" stroke-miterlimit="10"/>
<path d="M93.1853 105.147C93.9729 129.658 146.335 133.338 166.058 119.984C190.119 103.676 163.456 55.9608 167.845 40.2644C169.902 32.9037 140.442 52.5251 113.147 53.2416C85.3602 53.9721 68.5959 45.2728 76.7711 54.1503C81.9676 59.7984 92.2059 74.6211 93.1853 105.147Z" stroke="#D1D5DB" stroke-miterlimit="10"/>
<path d="M91.6682 108.656C91.7186 135.058 148.483 138.406 169.478 123.789C195.252 105.846 164.766 55.7401 170.488 38.3451C173.09 30.4392 140.931 48.6696 111.31 50.0886C81.3087 51.525 62.0169 44.8844 72.2383 54.8419C78.8249 61.2659 91.6076 75.6027 91.6682 108.656Z" stroke="#D1D5DB" stroke-miterlimit="10"/>
<path d="M90.1647 112.166C89.4915 140.476 150.638 143.465 172.906 127.597C200.389 108.025 166.05 55.4934 173.131 36.4277C176.274 27.9626 141.42 44.8159 109.477 46.9374C77.2608 49.0764 55.4548 44.4909 67.7091 55.5388C75.7025 62.7387 91.0263 76.5932 90.1647 112.166Z" stroke="#D1D5DB" stroke-miterlimit="10"/>
<path d="M88.651 115.676C87.234 145.866 152.787 148.53 176.329 131.404C205.523 110.182 167.323 55.2109 175.774 34.5095C179.456 25.4747 141.905 40.9545 107.64 43.782C73.206 46.6235 48.9028 44.1105 63.1798 56.2315C72.58 64.2143 90.4415 77.5864 88.651 115.676Z" stroke="#D1D5DB" stroke-miterlimit="10"/>
<path d="M87.1443 119.182C84.997 151.267 154.942 153.571 179.76 135.207C210.66 112.342 168.593 54.9392 178.414 32.5881C182.641 22.9801 142.401 37.0933 105.8 40.6268C69.1516 44.1673 42.3544 43.72 58.6474 56.9209C69.468 65.6831 89.8637 78.5765 87.1443 119.182Z" stroke="#D1D5DB" stroke-miterlimit="10"/>
<path d="M85.6305 122.692C82.7529 156.674 157.1 158.625 183.177 139.014C215.786 114.506 169.849 54.6424 181.06 30.6661C185.826 20.4744 142.877 33.228 103.967 37.471C65.0564 41.714 35.8157 43.3323 54.1113 57.6132C66.3488 67.1583 89.2822 79.5693 85.6305 122.692Z" stroke="#D1D5DB" stroke-miterlimit="10"/>
<path d="M84.1198 126.2C80.5152 162.08 159.234 163.678 186.604 142.822C220.933 116.669 171.122 54.3303 183.706 28.7498C189.013 17.9675 143.362 29.3649 102.133 34.3175C61.0484 39.256 29.2835 42.9399 49.5917 58.3077C63.2394 68.6322 88.7038 80.561 84.1198 126.2Z" stroke="#D1D5DB" stroke-miterlimit="10"/>
<path d="M82.6076 129.709C78.2761 167.487 161.343 168.676 190.029 146.618C226.001 118.752 172.359 53.9984 186.347 26.8206C192.2 15.4476 143.845 25.489 100.297 31.1546C56.9951 36.7886 22.7464 42.538 45.0606 58.9894C60.1285 70.1073 88.1306 81.5607 82.6076 129.709Z" stroke="#D1D5DB" stroke-miterlimit="10"/>
<path d="M81.1047 133.219C76.0462 172.895 163.499 173.734 193.453 150.436C231.148 120.934 173.596 53.6882 188.99 24.9132C195.385 12.9425 144.328 21.6348 98.4546 28.0133C52.931 34.3394 16.2085 42.1579 40.5219 59.6928C57.0236 71.5831 87.56 82.5576 81.1047 133.219Z" stroke="#D1D5DB" stroke-miterlimit="10"/>
<path d="M79.5902 136.729C73.808 178.32 165.65 178.796 196.879 154.243C236.257 123.105 174.865 53.3606 191.636 22.9953C198.579 10.413 144.806 17.6863 96.627 24.8617C48.8754 31.7995 9.68589 41.7674 36.0052 60.3858C53.9137 73.0589 86.9845 83.5582 79.5902 136.729Z" stroke="#D1D5DB" stroke-miterlimit="10"/>
<path d="M78.0803 140.238C71.6486 183.728 167.805 183.857 200.307 158.049C241.415 125.276 176.118 53.0253 194.282 21.0732C201.768 7.90725 145.292 13.8384 94.7941 21.7058C44.8244 29.3566 3.1612 41.3762 31.4763 61.0815C50.8085 74.5341 86.5079 84.5719 78.0803 140.238Z" stroke="#D1D5DB" stroke-miterlimit="10"/>
<path d="M76.575 143.746C69.3994 189.133 169.958 188.91 203.735 161.854C246.553 127.449 177.369 52.6854 196.93 19.1535C204.961 5.38636 145.772 9.9859 92.9623 18.5524C40.7747 26.9126 -3.36565 40.9803 26.952 61.7726C47.7214 76.0185 85.918 85.5671 76.575 143.746Z" stroke="#D1D5DB" stroke-miterlimit="10"/>
<path d="M75.0648 147.254C67.1489 194.539 172.113 193.973 207.159 165.659C251.68 129.618 178.622 52.3381 199.573 17.2335C208.152 2.86166 146.268 6.11559 91.1391 15.3985C36.7336 24.4858 -9.91752 40.6435 22.433 62.4634C44.5755 77.5237 85.3233 86.562 75.0648 147.254Z" stroke="#D1D5DB" stroke-miterlimit="10"/>
<path d="M73.5531 150.765C64.8866 199.948 174.27 199.046 210.585 169.468C256.826 131.791 179.874 51.9942 202.205 15.3168C211.332 0.336845 146.739 2.28362 89.2808 12.2446C32.6674 22.0274 -16.4339 40.2228 17.8922 63.1575C41.4853 78.9798 84.7439 87.5532 73.5531 150.765Z" stroke="#D1D5DB" stroke-miterlimit="10"/>
<path d="M13.3619 63.8528C38.3888 80.4335 84.1312 88.5596 72.0419 154.274C62.6416 205.358 176.414 204.097 214.008 173.277C261.961 133.961 181.122 51.648 204.857 13.3978C224.054 -17.5338 -59.8306 15.3655 13.3619 63.8528Z" stroke="#D1D5DB" stroke-miterlimit="10"/>
</g>
</svg>
