<svg width="81" height="26" viewBox="0 0 81 26" fill="none" xmlns="http://www.w3.org/2000/svg">
<g clip-path="url(#clip0_41926_26383)">
<path d="M5.00312 13.4246C4.83162 13.416 4.6597 13.4277 4.49092 13.4593C4.20936 13.5047 3.93965 13.6057 3.69752 13.7564C3.45538 13.9071 3.24565 14.1045 3.08056 14.3371C2.91547 14.5696 2.79831 14.8327 2.73591 15.111C2.67351 15.3893 2.66712 15.6773 2.71711 15.9581C2.83982 17.1161 4.07443 18.0926 5.21735 18.1217C5.33465 18.1246 5.45198 18.1168 5.56786 18.0984C6.80463 17.8982 7.12845 16.6237 6.92458 15.3718C6.6943 13.9584 5.6869 13.4601 5.00312 13.4246ZM6.21498 16.7734C6.16277 16.8516 6.0903 16.9141 6.00532 16.9543C5.92034 16.9944 5.82604 17.0107 5.7325 17.0015C5.56807 16.9885 5.41474 16.9134 5.30356 16.7916C5.19238 16.6698 5.13167 16.5102 5.13372 16.3453C5.13086 16.1255 5.17323 15.9075 5.2582 15.7048C5.31126 15.576 5.31637 15.4325 5.27258 15.3002C5.22879 15.168 5.13901 15.0559 5.01957 14.9843C4.87281 14.8933 4.69672 14.8621 4.52764 14.8972C4.36388 14.9286 4.21918 15.0235 4.12503 15.1611C4.06149 15.2638 4.01187 15.3746 3.97751 15.4904C3.97081 15.5107 3.96549 15.5265 3.96145 15.5369C3.90541 15.6798 3.81599 15.7216 3.75552 15.7138C3.73325 15.7098 3.71263 15.6994 3.69611 15.6839C3.67959 15.6684 3.66787 15.6485 3.66236 15.6266C3.63099 15.4358 3.64569 15.2403 3.70522 15.0563C3.76475 14.8724 3.86739 14.7053 4.00459 14.5691C4.12407 14.4498 4.2692 14.3594 4.42892 14.3048C4.58863 14.2501 4.75872 14.2326 4.92621 14.2537C5.1021 14.2748 5.27021 14.3384 5.416 14.439C5.5618 14.5397 5.68091 14.6743 5.76303 14.8313C5.84206 15.0202 5.87402 15.2255 5.85618 15.4294C5.83834 15.6334 5.77123 15.83 5.66061 16.0024C5.64663 16.0322 5.63382 16.0595 5.62289 16.0839C5.5831 16.1514 5.56115 16.2279 5.55908 16.3062C5.55701 16.3846 5.5749 16.4621 5.61107 16.5317C5.6429 16.574 5.68444 16.6082 5.73221 16.6312C5.77998 16.6541 5.83257 16.6653 5.88555 16.6637C5.93614 16.6631 5.98646 16.6564 6.03545 16.6437C6.09897 16.6297 6.16466 16.6152 6.20464 16.6628C6.21791 16.6777 6.22606 16.6965 6.22792 16.7164C6.22978 16.7363 6.22525 16.7563 6.21498 16.7734Z" fill="white"/>
<path d="M20.8078 19.1492C21.0658 18.4944 21.215 17.8018 21.2494 17.0989C21.2494 16.2346 20.7601 15.8764 20.4485 15.8764C20.4389 15.843 20.3773 15.6176 20.2924 15.3463C20.2439 15.189 20.1863 15.0346 20.1199 14.884C20.3749 14.5317 20.4829 14.094 20.4208 13.6636C20.3698 13.3317 20.212 13.0255 19.9713 12.7913C19.5145 12.4035 18.9693 12.1339 18.3838 12.0062C18.2956 11.9815 18.0049 11.9018 17.9794 11.894C17.9774 11.8774 17.9581 10.9419 17.9406 10.5403C17.9331 10.1376 17.873 9.73764 17.7621 9.35046C17.6242 8.79482 17.339 8.28661 16.9368 7.87929C17.944 6.83666 18.5728 5.68816 18.5713 4.70288C18.5684 2.80805 16.238 2.23466 13.3663 3.42216C13.3631 3.4235 12.762 3.67794 12.7577 3.68013C12.7551 3.67747 11.6577 2.6024 11.6412 2.58794C8.36703 -0.263837 -1.87032 11.0989 1.40277 13.8585L2.11807 14.4636C1.92505 14.9808 1.8569 15.5363 1.91917 16.0849C2.01612 16.8829 2.4106 17.615 3.02379 18.1349C3.61898 18.675 4.38794 18.9842 5.1914 19.0064C6.4651 21.9374 9.37525 23.7353 12.7875 23.8366C16.4478 23.9451 19.5204 22.2301 20.8078 19.1492ZM21.5591 15.6806C21.8727 16.0853 22.034 16.5873 22.0149 17.0989C21.982 17.8968 21.8151 18.6836 21.5213 19.4262L21.5143 19.4436C20.8502 21.0408 19.6905 22.3824 18.2063 23.2708C16.6615 24.1693 14.9014 24.6308 13.1144 24.6059C12.9988 24.6059 12.881 24.6041 12.7648 24.6007C11.0012 24.5638 9.27956 24.0556 7.77862 23.1288C6.45743 22.3009 5.38827 21.1269 4.68719 19.7342C3.87948 19.6088 3.12541 19.252 2.51615 18.7071C1.75866 18.06 1.27341 17.1507 1.15748 16.1612C1.10581 15.6804 1.13368 15.1944 1.23997 14.7226L0.907902 14.4418C0.639111 14.2097 0.420675 13.925 0.266039 13.6053C0.111402 13.2855 0.023838 12.9375 0.00873507 12.5827C-0.0185106 11.8461 0.108789 11.112 0.382437 10.4276C1.06411 8.56653 2.63226 6.35048 4.57754 4.4995C5.44562 3.65712 6.4086 2.9184 7.44711 2.29819C8.31329 1.74418 9.3081 1.42377 10.3348 1.3681C10.997 1.35083 11.6419 1.58027 12.1444 2.01187C12.1731 2.03689 12.603 2.45734 12.9291 2.77675C13.0109 2.74222 13.0698 2.71738 13.0715 2.71672C14.0361 2.29655 15.0728 2.06649 16.1246 2.03917C18.0735 2.03917 19.3343 3.08427 19.3368 4.70173C19.3383 5.69975 18.8483 6.81856 17.945 7.90163C18.1908 8.28165 18.3767 8.69717 18.4963 9.13365C18.6246 9.58048 18.6949 10.042 18.7054 10.5067C18.7141 10.7067 18.7231 11.0275 18.7303 11.3107C19.3968 11.4794 20.0126 11.8065 20.5257 12.2641C20.8734 12.6092 21.1015 13.0566 21.1765 13.5407C21.2518 14.0187 21.1779 14.5082 20.965 14.9426C20.9839 14.997 21.0037 15.0561 21.0233 15.1187C21.0403 15.1733 21.0564 15.2259 21.0715 15.2758C21.2591 15.3773 21.4248 15.5149 21.5591 15.6806Z" fill="white"/>
<path d="M19.2389 14.7342C19.3631 14.6175 19.4599 14.4749 19.5225 14.3164C19.585 14.158 19.6118 13.9876 19.6009 13.8176C19.5761 13.6463 19.4961 13.4877 19.3731 13.3658C19.0123 13.0663 18.5831 12.8607 18.1235 12.7674C17.9136 12.7079 17.7712 12.6697 17.6178 12.6187C17.3449 12.5279 17.2101 12.4547 17.1796 11.9361C17.1663 11.7092 17.1271 10.919 17.113 10.5925C17.0882 10.0203 17.02 9.2382 16.5401 8.9153C16.418 8.83431 16.276 8.78844 16.1297 8.7827C16.0477 8.77766 15.9655 8.78579 15.8861 8.80679C15.6425 8.8637 15.4208 8.99039 15.2481 9.17136C15.0246 9.37552 14.761 9.53095 14.4741 9.62777C14.1873 9.7246 13.8834 9.76071 13.5819 9.7338C13.2459 9.71956 12.89 9.6667 12.4819 9.64223C12.4025 9.63754 12.3229 9.63257 12.2434 9.62836C11.7161 9.64393 11.212 9.84852 10.823 10.2048C10.4339 10.5611 10.186 11.0454 10.1242 11.5693C9.89062 13.1943 11.0546 14.034 11.3906 14.5268C11.4425 14.5897 11.4747 14.6665 11.4831 14.7477C11.4744 14.8377 11.4316 14.9209 11.3635 14.9804L11.3635 14.9809C10.8982 15.5047 10.5715 16.1367 10.4133 16.8193C10.2551 17.5018 10.2703 18.2131 10.4577 18.8883C10.5021 19.0504 10.559 19.2089 10.628 19.3622C11.4773 21.3688 14.112 22.3033 16.686 21.4534C17.0232 21.342 17.3503 21.2023 17.6639 21.0357C18.2282 20.7536 18.7358 20.37 19.1614 19.9042C19.8253 19.2309 20.2613 18.3663 20.4081 17.4321C20.4857 16.915 20.3721 16.7148 20.2175 16.6186C20.1084 16.5572 19.9819 16.5338 19.858 16.5522C19.7925 16.1463 19.6775 15.7498 19.5155 15.3718L19.2389 14.7342Z" fill="white"/>
<path d="M15.0206 6.9843C15.0621 6.99384 15.0885 6.92209 15.0514 6.90126C14.4364 6.5826 13.7582 6.4051 13.066 6.3817C13.0593 6.38159 13.0528 6.37966 13.0472 6.37609C13.0416 6.37253 13.037 6.36749 13.0341 6.36152C13.0312 6.35554 13.0299 6.34887 13.0306 6.34225C13.0312 6.33562 13.0336 6.32929 13.0376 6.32396C13.1452 6.18332 13.2708 6.05744 13.4112 5.94956C13.4175 5.94468 13.422 5.93791 13.4242 5.93025C13.4264 5.92259 13.426 5.91444 13.4232 5.90699C13.4204 5.89953 13.4153 5.89317 13.4086 5.88883C13.402 5.8845 13.3941 5.88241 13.3861 5.88288C12.5386 5.96613 11.7238 6.25337 11.0115 6.72006C11.0054 6.72415 10.9982 6.72634 10.9909 6.72632C10.9836 6.7263 10.9764 6.72408 10.9703 6.71995C10.9643 6.71582 10.9596 6.70997 10.9569 6.70316C10.9542 6.69634 10.9536 6.68887 10.9552 6.68172C11.0126 6.46774 11.0971 6.26194 11.2065 6.06933C11.2101 6.06272 11.2115 6.05512 11.2105 6.04766C11.2095 6.0402 11.2061 6.03327 11.2008 6.02789C11.1955 6.02251 11.1887 6.01896 11.1812 6.01778C11.1738 6.01659 11.1662 6.01782 11.1595 6.02129C10.1308 6.58628 9.21398 7.33442 8.45414 8.22888C8.4482 8.23569 8.44497 8.24444 8.44507 8.25348C8.44517 8.26251 8.44858 8.27119 8.45466 8.27787C8.46074 8.28456 8.46906 8.28877 8.47805 8.28972C8.48703 8.29066 8.49605 8.28827 8.50339 8.283C9.38393 7.66769 10.3759 7.22984 11.4239 6.9939C12.6069 6.72102 13.8361 6.71774 15.0206 6.9843Z" fill="white"/>
<path d="M11.991 4.0821C11.991 4.0821 11.0998 3.0504 10.8308 2.9743C9.1758 2.52771 5.60074 4.98974 3.31806 8.24254C2.39443 9.55864 1.07224 11.8893 1.70448 13.0881C1.92919 13.3572 2.18251 13.6011 2.45997 13.8155C2.88358 13.2217 3.52111 12.8156 4.23826 12.6826C5.13829 10.1663 6.71818 7.94885 8.80246 6.27637C9.80263 5.45782 10.8691 4.72386 11.991 4.0821Z" fill="white"/>
<path d="M6.15505 16.7308C6.16788 16.7463 6.17571 16.7654 6.17751 16.7855C6.1793 16.8056 6.17497 16.8257 6.1651 16.8433C6.11706 16.9212 6.04819 16.9842 5.96627 17.0252C5.88434 17.0661 5.79262 17.0833 5.70143 17.0749C5.53892 17.0574 5.38911 16.9788 5.28229 16.8551C5.17547 16.7314 5.1196 16.5718 5.12596 16.4084C5.12321 16.1858 5.16385 15.9649 5.24561 15.7578C5.29721 15.6281 5.3026 15.4845 5.26085 15.3513C5.21911 15.2181 5.13278 15.1033 5.01637 15.0262C4.94748 14.9806 4.87015 14.9493 4.78895 14.9341C4.70775 14.9189 4.62433 14.9201 4.54361 14.9377C4.46452 14.9543 4.38956 14.9866 4.32314 15.0326C4.25671 15.0786 4.20016 15.1375 4.15682 15.2057C4.0955 15.3107 4.04783 15.423 4.01495 15.5401C4.00861 15.5607 4.00349 15.5769 3.99961 15.5873C3.94574 15.7326 3.85987 15.775 3.80168 15.7672C3.77417 15.7634 3.73635 15.745 3.7121 15.6785C3.68167 15.4862 3.69548 15.2896 3.75248 15.1035C3.80948 14.9173 3.90817 14.7467 4.04105 14.6044C4.15265 14.4846 4.29117 14.3931 4.44515 14.3374C4.59914 14.2817 4.76417 14.2635 4.9266 14.2842C5.09868 14.3079 5.2622 14.3738 5.40253 14.4762C5.54286 14.5785 5.65561 14.7141 5.73069 14.8707C5.80673 15.0632 5.83741 15.2706 5.82037 15.4769C5.80332 15.6832 5.739 15.8828 5.63239 16.0602C5.6189 16.0903 5.60655 16.118 5.59615 16.143C5.55781 16.2123 5.53676 16.2898 5.53478 16.369C5.5328 16.4482 5.54995 16.5266 5.58478 16.5978C5.61422 16.6402 5.65372 16.6746 5.69974 16.698C5.74576 16.7214 5.79687 16.733 5.84848 16.7318C5.89714 16.7311 5.94551 16.7243 5.99246 16.7115C6.05356 16.6972 6.11669 16.6825 6.15505 16.7308ZM21.2165 17.1068C21.1824 17.8081 21.0342 18.4992 20.7778 19.1529C19.4987 22.2272 16.4463 23.9387 12.81 23.8304C9.42015 23.7294 6.52896 21.9351 5.26359 19.0103C4.46476 18.9879 3.70056 18.6793 3.11027 18.1406C2.50049 17.6208 2.10871 16.8905 2.01284 16.0949C1.95097 15.5476 2.01866 14.9934 2.21044 14.4771L1.49981 13.8733C-1.7518 11.1194 8.41838 -0.219443 11.6712 2.62641C11.6876 2.64073 12.7777 3.71364 12.7805 3.71628C12.7848 3.71407 13.3819 3.46009 13.385 3.45885C16.238 2.27382 18.5531 2.846 18.556 4.73675C18.5575 5.72006 17.9328 6.86618 16.9322 7.90654C17.3321 8.31356 17.6152 8.82059 17.752 9.37457C17.8623 9.76105 17.9219 10.1602 17.9294 10.5621C17.9467 10.9628 17.966 11.8963 17.9679 11.9129C17.9933 11.9206 18.2821 12.0001 18.3697 12.0248C18.9518 12.1525 19.4935 12.4216 19.9468 12.8083C20.1862 13.0423 20.3429 13.3478 20.3934 13.6787C20.4551 14.108 20.348 14.5446 20.0945 14.8966C20.1605 15.047 20.2177 15.201 20.2659 15.358C20.3501 15.6288 20.4114 15.8535 20.4208 15.8869C20.7303 15.8869 21.2165 16.2443 21.2165 17.1068ZM6.84681 15.4198C6.62568 13.9843 5.65752 13.4783 5.00058 13.4422C4.83568 13.4335 4.67033 13.4453 4.50834 13.4773C3.33581 13.7146 2.67358 14.7151 2.80389 16.0151C2.89879 16.5982 3.18755 17.1323 3.62349 17.531C4.05944 17.9298 4.61711 18.1699 5.20636 18.2125C5.31913 18.2155 5.43193 18.2076 5.54316 18.1888C6.73157 17.9855 7.04271 16.6912 6.84681 15.4198ZM8.85094 6.30683C9.84418 5.49027 10.9037 4.75785 12.0185 4.11716C12.0185 4.11716 11.1333 3.08768 10.866 3.01181C9.22186 2.56601 5.67013 5.02291 3.40246 8.26885C2.4849 9.58221 1.17138 11.9081 1.7994 13.1042C2.02251 13.3727 2.27418 13.6161 2.54997 13.8301C2.96984 13.2383 3.60337 12.8329 4.31667 12.6996C5.20906 10.191 6.77842 7.9784 8.85094 6.30683ZM12.4244 17.6671C12.4679 17.8579 12.5622 18.0334 12.6973 18.175C12.8324 18.3167 13.0032 18.4192 13.1917 18.4717C13.3878 18.5448 13.5901 18.5999 13.7962 18.6364C16.3969 19.0851 18.8283 17.5936 19.3758 17.2179C19.4169 17.1897 19.444 17.2172 19.4111 17.267C19.3946 17.2935 19.3767 17.3191 19.3574 17.3436C18.6875 18.2105 16.8863 19.2143 14.5429 19.214C13.5209 19.2138 12.4993 18.8526 12.1243 18.2977C11.5424 17.4366 12.0954 16.1798 13.065 16.3107C13.0662 16.3109 13.3968 16.3485 13.4898 16.3588C14.997 16.5038 16.5162 16.2599 17.9023 15.6505C19.2252 15.0346 19.7249 14.3567 19.6499 13.808C19.6249 13.6376 19.5448 13.4801 19.4219 13.3594C19.0601 13.0616 18.6306 12.8575 18.1712 12.7652C17.9611 12.706 17.8185 12.6683 17.6649 12.6175C17.3919 12.5273 17.2569 12.4547 17.2263 11.9396C17.213 11.7144 17.1739 10.9297 17.1597 10.6054C17.1347 10.0372 17.0666 9.26057 16.5861 8.93991C16.4638 8.8594 16.3218 8.81386 16.1754 8.80822C16.0934 8.80323 16.0111 8.81132 15.9316 8.83219C15.6882 8.88852 15.4664 9.01429 15.2931 9.19425C15.0685 9.39721 14.8044 9.55158 14.5174 9.64769C14.2304 9.74379 13.9266 9.77955 13.6251 9.75272C13.2889 9.73866 12.9326 9.68612 12.5243 9.66181C12.4448 9.65712 12.365 9.65217 12.2854 9.6481C11.7596 9.66189 11.2562 9.86406 10.8669 10.2178C10.4776 10.5715 10.2282 11.0533 10.1643 11.5754C9.93045 13.1891 11.0955 14.023 11.4319 14.5123C11.4838 14.5746 11.5161 14.651 11.5244 14.7317C11.5156 14.8212 11.4727 14.9039 11.4047 14.9628V14.9633C10.9395 15.4816 10.6125 16.1089 10.454 16.7872C10.2955 17.4654 10.3107 18.1726 10.4981 18.8434C10.5425 19.0045 10.5995 19.1619 10.6685 19.3141C11.5186 21.3067 14.1558 22.2346 16.7322 21.3905C17.0696 21.2801 17.397 21.1414 17.7111 20.976C18.2752 20.6963 18.7833 20.3154 19.21 19.8523C19.8735 19.1854 20.3102 18.3265 20.4579 17.3974C20.5355 16.8838 20.4219 16.6852 20.2671 16.5896C20.1577 16.5286 20.0312 16.5054 19.9072 16.5236C19.8416 16.1202 19.7265 15.7265 19.5645 15.3514C18.8287 15.9066 17.9969 16.3216 17.1107 16.5755C16.0445 16.8767 14.9354 16.997 13.8294 16.9314C13.1179 16.8737 12.6472 16.6654 12.4701 17.2425C13.5464 17.6024 14.6891 17.719 15.8159 17.5839C15.8238 17.5831 15.8318 17.5838 15.8395 17.5861C15.8471 17.5884 15.8542 17.5922 15.8604 17.5972C15.8665 17.6023 15.8717 17.6085 15.8754 17.6155C15.8792 17.6225 15.8815 17.6302 15.8823 17.6382C15.8835 17.6515 15.8805 17.6649 15.8738 17.6764C15.8671 17.688 15.8569 17.6972 15.8447 17.7027C15.8447 17.7027 14.5232 18.3182 12.4244 17.6671ZM8.5539 8.30953C9.42802 7.69586 10.4136 7.25891 11.4553 7.02324C12.6304 6.75091 13.8519 6.74762 15.0285 7.0136C15.0696 7.02306 15.0959 6.95152 15.0591 6.93083C14.4485 6.61293 13.7745 6.43574 13.0866 6.41225C13.08 6.41213 13.0735 6.41018 13.0679 6.40662C13.0623 6.40307 13.0578 6.39803 13.0549 6.39208C13.052 6.38613 13.0508 6.37949 13.0514 6.37289C13.052 6.36629 13.0544 6.35999 13.0584 6.35467C13.1652 6.21441 13.2901 6.08879 13.4296 5.98104C13.4359 5.97616 13.4404 5.96941 13.4426 5.96177C13.4447 5.95413 13.4444 5.94601 13.4416 5.93858C13.4388 5.93115 13.4338 5.92481 13.4271 5.92047C13.4205 5.91612 13.4126 5.91402 13.4047 5.91445C12.5622 5.99774 11.7526 6.28445 11.0455 6.74991C11.0395 6.75401 11.0323 6.75618 11.025 6.75617C11.0177 6.75615 11.0106 6.75394 11.0046 6.74981C10.9986 6.74569 10.9939 6.73985 10.9913 6.73306C10.9886 6.72626 10.9881 6.71882 10.9897 6.71171C11.0466 6.49825 11.1305 6.29291 11.2393 6.10062C11.2429 6.09405 11.2443 6.08649 11.2433 6.07905C11.2423 6.07162 11.2389 6.06471 11.2337 6.05933C11.2285 6.05396 11.2216 6.0504 11.2142 6.04919C11.2068 6.04798 11.1992 6.04917 11.1926 6.0526C10.1699 6.61706 9.2591 7.3637 8.50497 8.2557C8.49906 8.26247 8.49584 8.27117 8.49593 8.28015C8.49602 8.28914 8.49941 8.29777 8.50545 8.30442C8.5115 8.31107 8.51977 8.31526 8.5287 8.3162C8.53764 8.31714 8.5466 8.31477 8.5539 8.30953ZM15.4027 13.7871C15.4739 13.8322 15.5591 13.8495 15.6423 13.8356C15.7254 13.8218 15.8005 13.7779 15.8533 13.7122C15.9189 13.5853 15.8236 13.4131 15.6404 13.3275C15.5692 13.2825 15.4839 13.2652 15.4008 13.2791C15.3177 13.2929 15.2426 13.3369 15.1898 13.4026C15.1242 13.5295 15.2195 13.7017 15.4027 13.7871ZM15.9646 11.7282C16.0085 11.9568 16.1033 12.1726 16.242 12.3595C16.3852 12.3419 16.5301 12.3419 16.6734 12.3595C16.7572 12.1086 16.7645 11.8385 16.6945 11.5834C16.5909 11.1127 16.4508 10.8278 16.1612 10.8721C15.8718 10.9165 15.8611 11.2575 15.9646 11.7282ZM16.5805 12.8094C16.5075 12.7885 16.4298 12.7909 16.3582 12.8164C16.2866 12.8419 16.2249 12.8892 16.1816 12.9517C16.1383 13.0141 16.1156 13.0885 16.1168 13.1645C16.118 13.2404 16.1429 13.3141 16.1881 13.3752C16.2334 13.4362 16.2966 13.4816 16.3689 13.5048C16.4412 13.5281 16.519 13.5282 16.5913 13.505C16.6636 13.4818 16.7269 13.4365 16.7722 13.3755C16.8174 13.3145 16.8425 13.2408 16.8437 13.1648C16.8542 13.0831 16.8327 13.0004 16.7836 12.9342C16.7346 12.8679 16.6618 12.8232 16.5805 12.8094Z" fill="black"/>
<path d="M11.7733 12.764C11.7272 12.7575 11.7075 12.7377 11.7017 12.7115C11.6837 12.6303 11.8086 12.4967 11.9403 12.4002C12.1324 12.2598 12.3574 12.1711 12.5937 12.1427C12.83 12.1143 13.0697 12.1472 13.2896 12.2382C13.4951 12.323 13.6718 12.4652 13.7985 12.6478C13.8455 12.7246 13.8546 12.7842 13.8242 12.8154C13.7768 12.8654 13.6559 12.8081 13.4591 12.7218C13.2227 12.6057 12.9614 12.5495 12.6982 12.5579C12.3863 12.6092 12.0775 12.678 11.7733 12.764ZM13.735 13.1678C13.65 13.0784 13.5441 13.0115 13.4269 12.9731C13.3096 12.9346 13.1847 12.9259 13.0632 12.9476C12.8841 12.9666 12.7144 13.0374 12.5748 13.1512C12.5097 13.1979 12.465 13.2677 12.4498 13.3464C12.4494 13.3551 12.451 13.3638 12.4544 13.3719C12.4578 13.38 12.4629 13.3872 12.4694 13.3931C12.4809 13.4036 12.496 13.4093 12.5116 13.4091C12.576 13.3997 12.639 13.3822 12.6991 13.3571C12.9623 13.2579 13.2465 13.2284 13.5244 13.2714C13.6532 13.2859 13.7141 13.2939 13.7423 13.2497C13.7496 13.2369 13.7528 13.2223 13.7515 13.2076C13.7502 13.193 13.7444 13.1791 13.735 13.1678Z" fill="black"/>
<path d="M13.3704 13.2866C13.4517 12.9973 13.4563 12.692 13.3839 12.4004C13.2792 11.929 13.1207 11.6596 12.8271 11.704C12.5335 11.7483 12.5259 12.1282 12.6206 12.6016C12.6641 12.8186 12.7488 13.0251 12.8702 13.2101C13.1038 13.5361 13.2627 13.4517 13.3704 13.2866Z" fill="black"/>
<path d="M32.1712 9.80547C30.5566 9.80547 30.5286 11.5683 30.1464 11.5683C30.0668 11.5683 30.0036 11.4981 30.0036 11.4013C30.0036 11.2726 30.0372 11.1611 30.0372 10.9528C30.0372 10.3203 29.5918 9.80547 28.6581 9.80547C27.8656 9.80547 27.2853 10.2025 26.9312 10.9365C26.7518 11.3085 26.7674 11.5675 26.5857 11.5675C26.5186 11.5675 26.4663 11.5043 26.4663 11.413C26.4663 11.1432 26.7042 10.8967 26.7042 10.3171C26.7042 10.1666 26.6925 10.0395 26.6683 9.93573H25.1333V15.8902H27.2175V12.6595C27.2175 12.023 27.4905 11.6151 27.9561 11.6151C28.265 11.6151 28.5396 11.8849 28.5396 12.3787V15.8902H30.6237V12.6595C30.6237 11.9442 30.9544 11.6151 31.3624 11.6151C31.704 11.6151 31.9458 11.931 31.9458 12.3787V15.8902H34.0058V12.2344C34.0058 10.6369 33.3717 9.80469 32.172 9.80469L32.1712 9.80547Z" fill="black"/>
<path d="M46.4257 8.26953H44.3657V15.8909H46.4257V8.26953Z" fill="black"/>
<path d="M47.105 12.8412C47.105 14.8669 48.4162 16.033 50.1182 16.033C51.0939 16.033 51.8396 15.6469 52.2975 15.2709V13.3061C51.8342 13.6228 51.1212 13.9847 50.3561 13.9847C49.4013 13.9847 48.9029 13.5884 48.9029 12.9013C48.9029 12.2141 49.4778 11.8295 50.3202 11.8295C51.083 11.8295 51.7827 12.133 52.2967 12.4847V10.4006C51.8615 10.0769 51.0932 9.79297 50.1174 9.79297C48.2906 9.79297 47.1042 10.9349 47.1042 12.842L47.105 12.8412Z" fill="black"/>
<path d="M56.8348 9.81707C55.9971 9.81707 55.5119 10.2055 55.1555 10.9247C54.9987 11.2421 54.987 11.5557 54.8099 11.5557C54.7436 11.5557 54.6906 11.4941 54.6906 11.4012C54.6906 11.0713 55.0837 10.5791 55.0837 9.12677C55.0837 8.76173 55.0478 8.48015 54.9769 8.28125H53.179V15.8909H55.2631V12.6859C55.2631 12.0853 55.579 11.6274 56.0611 11.6274C56.4199 11.6274 56.6687 11.9192 56.6687 12.3911V15.8909H58.7528V12.1633C58.7528 10.608 58.0742 9.81707 56.8356 9.81707H56.8348Z" fill="black"/>
<path d="M75.9603 9.79297C75.0392 9.79297 74.5688 10.3179 74.306 10.8031C74.0977 11.1868 74.0673 11.5558 73.8887 11.5558C73.8013 11.5558 73.7576 11.5043 73.7576 11.4013C73.7576 11.2188 73.9955 10.9091 73.9955 10.4014C73.9955 10.1947 73.9791 10.0402 73.9479 9.93727H72.3879V17.4159H74.4838V15.0665C74.7498 15.6344 75.3067 16.0103 76.068 16.0103C77.4408 16.0103 78.3783 14.8778 78.3783 12.902C78.3783 11.0792 77.5094 9.79375 75.9611 9.79375L75.9603 9.79297ZM75.4003 14.6399C74.9799 14.6399 74.5189 14.2039 74.5189 13.1033C74.5189 12.1447 74.8956 11.5792 75.4003 11.5792C75.9806 11.5792 76.3051 12.1384 76.3051 13.1033C76.3051 14.1758 75.9315 14.6399 75.4003 14.6399Z" fill="black"/>
<path d="M37.7294 9.79375C36.653 9.79375 35.6671 10.0597 34.9822 10.4006V12.1252C35.7794 11.6946 36.5968 11.3756 37.3136 11.3756C38.0812 11.3756 38.4064 11.7804 38.3604 12.3131C38.0507 12.2812 37.7068 12.2679 37.2895 12.2679C35.6593 12.2679 34.6375 12.9044 34.6375 14.2897C34.6375 15.4277 35.5235 16.0142 36.4931 16.0142C37.4626 16.0142 38.0897 15.5618 38.4665 14.8801C38.681 14.4917 38.663 14.2538 38.8027 14.2538C38.8713 14.2538 38.9189 14.3029 38.9189 14.3794C38.9189 14.6282 38.8479 14.7733 38.8479 15.1102C38.8479 15.4253 38.8892 15.6905 38.9548 15.8832H40.4531V12.6953C40.4531 10.885 39.6248 9.79297 37.7294 9.79297V9.79375ZM37.0274 14.551C36.6405 14.551 36.433 14.3817 36.433 14.0869C36.433 13.7031 36.7942 13.409 37.7294 13.409C37.9353 13.409 38.1217 13.4161 38.291 13.4301C38.2083 13.9784 37.7309 14.551 37.0274 14.551Z" fill="black"/>
<path d="M69.6845 9.80547C68.0699 9.80547 68.0418 11.5683 67.6596 11.5683C67.5801 11.5683 67.5169 11.4981 67.5169 11.4013C67.5169 11.2726 67.5504 11.1611 67.5504 10.9528C67.5504 10.3203 67.1051 9.80547 66.1714 9.80547C65.3789 9.80547 64.7986 10.2025 64.4445 10.9365C64.2651 11.3085 64.2807 11.5675 64.0989 11.5675C64.0319 11.5675 63.9796 11.5043 63.9796 11.413C63.9796 11.1432 64.2175 10.8967 64.2175 10.3171C64.2175 10.1666 64.2058 10.0395 64.1816 9.93573H62.645V15.8902H64.7292V12.6595C64.7292 12.023 65.0022 11.6151 65.4678 11.6151C65.7767 11.6151 66.0513 11.8849 66.0513 12.3787V15.8902H68.1354V12.6595C68.1354 11.9442 68.4662 11.6151 68.8741 11.6151C69.2157 11.6151 69.4575 11.931 69.4575 12.3787V15.8902H71.5175V12.2344C71.5175 10.6369 70.8834 9.80469 69.6837 9.80469L69.6845 9.80547Z" fill="black"/>
<path d="M60.6694 10.3544C60.2326 10.3544 59.887 10.2912 59.6335 10.1641V15.8924H61.6935V10.1641C61.426 10.2818 61.1077 10.3544 60.6694 10.3544Z" fill="black"/>
<path d="M60.6575 8.23438C59.8058 8.23438 59.3596 8.61111 59.3596 9.04401C59.3596 9.51045 59.8877 9.85366 60.6575 9.85366C61.4274 9.85366 61.9555 9.51045 61.9555 9.04401C61.9555 8.61111 61.5085 8.23438 60.6575 8.23438Z" fill="black"/>
<path d="M42.4189 10.3544C41.9821 10.3544 41.6366 10.2912 41.3831 10.1641V15.8924H43.443V10.1641C43.1755 10.2818 42.8573 10.3544 42.4189 10.3544Z" fill="black"/>
<path d="M42.4071 8.23438C41.5553 8.23438 41.1091 8.61111 41.1091 9.04401C41.1091 9.51045 41.6372 9.85366 42.4071 9.85366C43.1769 9.85366 43.705 9.51045 43.705 9.04401C43.705 8.61111 43.258 8.23438 42.4071 8.23438Z" fill="black"/>
</g>
<defs>
<clipPath id="clip0_41926_26383">
<rect width="80.1667" height="26" fill="white"/>
</clipPath>
</defs>
</svg>
